<svg viewBox="-196.9 -302 288.4 553.1" width="288.4" height="553.1" version="1.1" baseProfile="full" xmlns="http://www.w3.org/2000/svg" class="js-draw--autoresize"><style id="js-draw-style-sheet">path{stroke-linecap:round;stroke-linejoin:round;}text{white-space:pre;}</style><path d="M91.5,251.1l0-553.1l-288.4,0l0,553.1l288.4,0" fill="#ffffff" class="js-draw-image-background"></path><path d="M-100,-96q-5-19 -10-25q-1.1-1.3 -7-5q-2.7-1.7 38,39q50.9,53.1 92,97q.6,.7 4-2q1.5-1.2 -2-99q-1.9-53.1 -41-78q-14-8.9 -14,35q0,19.3 10,51q15.9,67.4 27,123q1.2,6.1 -20-1q-23.2-7.7 -31,4q-11,16.5 10,48q21.4,32.1 80,8q30.1-12.4 23-76q-3.2-29.2 -51-65q-26.7-20 -33-20q-4.6,0 -9,48q-5.1,56.2 23,45q1.6-.6 24-48q7.2-15.1 -3-27q-6.3-7.3 -58-12q-24.2-2.2 -57-35q.4,.4 1,1q11.7,11.7 66,35q19.7,8.4 60-5q24-8 26-9q13.7-21 21-42q4.1-11.7 -7-20q-36-27 -63-54q-1.2-1.2 3,8q11.3,13.8 22,24q15.3,14.6 33,50q7,14 7,29q0,1 -8-7" fill="none" stroke="#803380" stroke-width="2.4"></path><path d="M-168,-237q14.4,38 25,55q10.2,16.4 29,7q6-3 6-103q0-22.8 20-5q96.1,85.4 114,184q3.7,20.1 -14,24q-25.6,5.7 -99-20q-24.6-8.6 -54-38q-11.2-11.2 17-14q17-1.7 39,3q18.1,3.9 22,56q6.1,82.5 -24,90q-1.1,3.3 -1,7q.2,5 47,5q20.6,0 55-50q7-10.2 7-46q0-12 -27-12q-13.6,0 -34,46q-6.7,15 6,88q5.4,31.1 17,41q9.1,7.8 31-50q17.9-47.3 -2-112q-12.6-41 -72-74q-16.2-9 -61-9q-27.4,0 -55,43q-19.7,30.6 0,106q13.2,50.5 50,61q21.6,6.2 61-22q23.3-16.7 26-73q.2-4.1 -16-13q-9-5 -57,43q-17.8,17.8 2,107q7.5,33.9 29,50q7,5.3 29-1q7.7-2.2 19-36q4.7-14.2 -44,65q-29.5,47.9 -65,44q-6.5-.7 -12-20q-3-10.5 8-16q24.6-12.3 94-6q7,.6 34,9q27.3,8.4 38-56q1.2-6.9 0-35q-1-24.4 -88,6q-22.6,7.9 -28,26q-9,30 12,54q10,11.5 41-4q26.2-13.1 48-48q1.9-4.9 3-9q1-3.5 0,18q-.3,7.6 50,30q32.3,14.4 17,45q-8.3,16.7 -45,35q-21.8,10.9 -43-15q-21.2-28.4 -38-52q-16.7-19.6 -31-35q-2.7-2.9 44-6q45-3 46-3q2,0 1,10q-1.1,11 -26,11q-17.4,0 -46-40q-8.6-12 -10-12q-6,0 -13,7" fill="none" stroke="#803380" stroke-width="2.4"></path></svg>